<svg width="13" height="13" viewBox="0 0 13 13" fill="none" xmlns="http://www.w3.org/2000/svg">
<path fill-rule="evenodd" clip-rule="evenodd" d="M6.4 12.1135C9.93462 12.1135 12.8 9.42717 12.8 6.11346C12.8 4.56115 12.1712 3.14651 11.1394 2.08122L11.1535 2.06705C11.3488 1.87178 11.3488 1.5552 11.1535 1.35994C10.9583 1.16468 10.6417 1.16468 10.4464 1.35994L10.3868 1.41955C9.29317 0.602063 7.90745 0.113464 6.4 0.113464C2.86538 0.113464 0 2.79976 0 6.11346C0 7.66579 0.628806 9.08042 1.66065 10.1457L1.64643 10.1599C1.45116 10.3552 1.45116 10.6718 1.64643 10.867C1.84169 11.0623 2.15827 11.0623 2.35353 10.867L2.4132 10.8074C3.50683 11.6249 4.89255 12.1135 6.4 12.1135ZM2.4132 10.8074L11.1394 2.08122C10.9079 1.8423 10.6562 1.62094 10.3868 1.41955L1.66065 10.1457C1.89207 10.3846 2.14377 10.606 2.4132 10.8074Z" fill="#0D3A91"/>
</svg>
